<svg version="1.1" viewBox="0.0 0.0 460.0 287.0" fill="none" stroke="none" stroke-linecap="square" stroke-miterlimit="10" width="460" height="287" xmlns:xlink="http://www.w3.org/1999/xlink" xmlns="http://www.w3.org/2000/svg"><path fill="#ffffff" d="M0 0L460.0 0L460.0 287.0L0 287.0L0 0Z" fill-rule="nonzero"/><clipPath id="id_0"><path d="M82.63631 28.022362L460.0 28.022362L460.0 269.4634L82.63631 269.4634L82.63631 28.022362Z" clip-rule="nonzero"/></clipPath><path stroke="#000000" stroke-width="2.0" stroke-linecap="butt" stroke-opacity="0.0" clip-path="url(#id_0)" d="M83.0 257.0L83.0 232.0L232.0 232.0C233.10457 232.0 234.0 232.89543 234.0 234.0L234.0 255.0C234.0 256.10458 233.10457 257.0 232.0 257.0Z" fill-rule="nonzero"/><path fill="#4472c4" clip-path="url(#id_0)" d="M83.0 257.0L83.0 232.0L232.0 232.0C233.10457 232.0 234.0 232.89543 234.0 234.0L234.0 255.0C234.0 256.10458 233.10457 257.0 232.0 257.0Z" fill-rule="nonzero"/><path stroke="#000000" stroke-width="2.0" stroke-linecap="butt" stroke-opacity="0.0" clip-path="url(#id_0)" d="M83.0 219.0L83.0 194.0L269.0 194.0C270.10458 194.0 271.0 194.89543 271.0 196.0L271.0 217.0C271.0 218.10457 270.10458 219.0 269.0 219.0Z" fill-rule="nonzero"/><path fill="#4472c4" clip-path="url(#id_0)" d="M83.0 219.0L83.0 194.0L269.0 194.0C270.10458 194.0 271.0 194.89543 271.0 196.0L271.0 217.0C271.0 218.10457 270.10458 219.0 269.0 219.0Z" fill-rule="nonzero"/><path stroke="#000000" stroke-width="2.0" stroke-linecap="butt" stroke-opacity="0.0" clip-path="url(#id_0)" d="M83.0 181.0L83.0 156.0L269.0 156.0C270.10458 156.0 271.0 156.89543 271.0 158.0L271.0 179.0C271.0 180.10457 270.10458 181.0 269.0 181.0Z" fill-rule="nonzero"/><path fill="#4472c4" clip-path="url(#id_0)" d="M83.0 181.0L83.0 156.0L269.0 156.0C270.10458 156.0 271.0 156.89543 271.0 158.0L271.0 179.0C271.0 180.10457 270.10458 181.0 269.0 181.0Z" fill-rule="nonzero"/><path stroke="#000000" stroke-width="2.0" stroke-linecap="butt" stroke-opacity="0.0" clip-path="url(#id_0)" d="M83.0 143.0L83.0 118.0L307.0 118.0C308.10458 118.0 309.0 118.89543 309.0 120.0L309.0 141.0C309.0 142.10457 308.10458 143.0 307.0 143.0Z" fill-rule="nonzero"/><path fill="#4472c4" clip-path="url(#id_0)" d="M83.0 143.0L83.0 118.0L307.0 118.0C308.10458 118.0 309.0 118.89543 309.0 120.0L309.0 141.0C309.0 142.10457 308.10458 143.0 307.0 143.0Z" fill-rule="nonzero"/><path stroke="#000000" stroke-width="2.0" stroke-linecap="butt" stroke-opacity="0.0" clip-path="url(#id_0)" d="M83.0 105.0L83.0 80.0L420.0 80.0C421.10458 80.0 422.0 80.89543 422.0 82.0L422.0 103.0C422.0 104.10457 421.10458 105.0 420.0 105.0Z" fill-rule="nonzero"/><path fill="#4472c4" clip-path="url(#id_0)" d="M83.0 105.0L83.0 80.0L420.0 80.0C421.10458 80.0 422.0 80.89543 422.0 82.0L422.0 103.0C422.0 104.10457 421.10458 105.0 420.0 105.0Z" fill-rule="nonzero"/><path stroke="#000000" stroke-width="2.0" stroke-linecap="butt" stroke-opacity="0.0" clip-path="url(#id_0)" d="M83.0 67.0L83.0 42.0L383.0 42.0C384.10458 42.0 385.0 42.89543 385.0 44.0L385.0 65.0C385.0 66.10457 384.10458 67.0 383.0 67.0Z" fill-rule="nonzero"/><path fill="#4472c4" clip-path="url(#id_0)" d="M83.0 67.0L83.0 42.0L383.0 42.0C384.10458 42.0 385.0 42.89543 385.0 44.0L385.0 65.0C385.0 66.10457 384.10458 67.0 383.0 67.0Z" fill-rule="nonzero"/><path fill="#000000" d="M24.667553 243.22029Q24.667553 244.17342 24.417553 244.86092Q24.167553 245.53279 23.698803 245.97029Q23.230053 246.39217 22.558178 246.59529Q21.901928 246.79842 20.980053 246.79842L19.308178 246.79842Q19.136303 246.79842 19.011303 246.70467Q18.886303 246.59529 18.886303 246.34529L18.886303 240.29842Q18.886303 240.06404 19.011303 239.95467Q19.136303 239.84529 19.308178 239.84529L21.089428 239.84529Q22.026928 239.84529 22.667553 240.06404Q23.323803 240.28279 23.761303 240.72029Q24.198803 241.14217 24.433178 241.76717Q24.667553 242.39217 24.667553 243.22029ZM23.214428 243.26717Q23.214428 242.78279 23.089428 242.36092Q22.980053 241.92342 22.714428 241.61092Q22.464428 241.29842 22.058178 241.12654Q21.667553 240.95467 21.011303 240.95467L20.308178 240.95467L20.308178 245.67342L21.042553 245.67342Q21.620678 245.67342 22.011303 245.53279Q22.417553 245.37654 22.683178 245.07967Q22.948803 244.76717 23.073803 244.32967Q23.214428 243.87654 23.214428 243.26717ZM29.901928 246.62654Q29.901928 246.70467 29.839428 246.75154Q29.792553 246.79842 29.667553 246.81404Q29.558178 246.82967 29.323803 246.82967Q29.089428 246.82967 28.980053 246.81404Q28.870678 246.79842 28.823803 246.75154Q28.776928 246.70467 28.776928 246.62654L28.776928 246.25154Q28.480053 246.56404 28.105053 246.75154Q27.730053 246.92342 27.261303 246.92342Q26.886303 246.92342 26.558178 246.81404Q26.245678 246.72029 26.011303 246.53279Q25.776928 246.32967 25.636303 246.04842Q25.511303 245.75154 25.511303 245.36092Q25.511303 244.93904 25.667553 244.64217Q25.839428 244.32967 26.167553 244.12654Q26.495678 243.92342 26.980053 243.82967Q27.464428 243.73592 28.105053 243.73592L28.573803 243.73592L28.573803 243.43904Q28.573803 243.22029 28.526928 243.04842Q28.480053 242.87654 28.370678 242.76717Q28.261303 242.65779 28.089428 242.61092Q27.917553 242.54842 27.667553 242.54842Q27.323803 242.54842 27.058178 242.62654Q26.792553 242.68904 26.589428 242.78279Q26.386303 242.87654 26.245678 242.95467Q26.105053 243.03279 26.026928 243.03279Q25.964428 243.03279 25.917553 243.00154Q25.870678 242.95467 25.839428 242.89217Q25.808178 242.81404 25.792553 242.72029Q25.776928 242.61092 25.776928 242.48592Q25.776928 242.31404 25.808178 242.22029Q25.839428 242.12654 25.901928 242.04842Q25.980053 241.97029 26.167553 241.87654Q26.355053 241.78279 26.605053 241.70467Q26.870678 241.62654 27.167553 241.57967Q27.464428 241.51717 27.776928 241.51717Q28.339428 241.51717 28.730053 241.62654Q29.136303 241.73592 29.386303 241.97029Q29.651928 242.18904 29.776928 242.54842Q29.901928 242.90779 29.901928 243.40779L29.901928 246.62654ZM28.573803 244.57967L28.058178 244.57967Q27.730053 244.57967 27.495678 244.62654Q27.261303 244.67342 27.120678 244.78279Q26.980053 244.87654 26.901928 245.01717Q26.839428 245.14217 26.839428 245.31404Q26.839428 245.62654 27.026928 245.79842Q27.214428 245.97029 27.558178 245.97029Q27.839428 245.97029 28.073803 245.82967Q28.323803 245.67342 28.573803 245.39217L28.573803 244.57967ZM33.651928 246.14217Q33.651928 246.37654 33.620678 246.50154Q33.589428 246.62654 33.542553 246.68904Q33.495678 246.73592 33.401928 246.78279Q33.308178 246.81404 33.183178 246.84529Q33.058178 246.87654 32.901928 246.89217Q32.761303 246.90779 32.605053 246.90779Q32.198803 246.90779 31.901928 246.79842Q31.620678 246.70467 31.417553 246.50154Q31.230053 246.28279 31.136303 245.95467Q31.042553 245.62654 31.042553 245.18904L31.042553 242.73592L30.464428 242.73592Q30.370678 242.73592 30.308178 242.61092Q30.261303 242.48592 30.261303 242.18904Q30.261303 242.03279 30.276928 241.92342Q30.292553 241.81404 30.308178 241.75154Q30.339428 241.68904 30.370678 241.67342Q30.417553 241.64217 30.480053 241.64217L31.042553 241.64217L31.042553 240.57967Q31.042553 240.51717 31.073803 240.48592Q31.105053 240.43904 31.183178 240.40779Q31.261303 240.37654 31.386303 240.36092Q31.526928 240.34529 31.714428 240.34529Q31.917553 240.34529 32.042553 240.36092Q32.183178 240.37654 32.245678 240.40779Q32.323803 240.43904 32.355053 240.48592Q32.386303 240.51717 32.386303 240.57967L32.386303 241.64217L33.433178 241.64217Q33.495678 241.64217 33.526928 241.67342Q33.573803 241.68904 33.589428 241.75154Q33.620678 241.81404 33.636303 241.92342Q33.651928 242.03279 33.651928 242.18904Q33.651928 242.48592 33.589428 242.61092Q33.542553 242.73592 33.433178 242.73592L32.386303 242.73592L32.386303 244.98592Q32.386303 245.37654 32.511303 245.57967Q32.636303 245.76717 32.948803 245.76717Q33.058178 245.76717 33.136303 245.75154Q33.230053 245.73592 33.292553 245.72029Q33.370678 245.68904 33.417553 245.67342Q33.464428 245.64217 33.495678 245.64217Q33.526928 245.64217 33.558178 245.67342Q33.589428 245.68904 33.605053 245.75154Q33.620678 245.79842 33.636303 245.89217Q33.651928 245.98592 33.651928 246.14217ZM38.901928 246.62654Q38.901928 246.70467 38.839428 246.75154Q38.792553 246.79842 38.667553 246.81404Q38.558178 246.82967 38.323803 246.82967Q38.089428 246.82967 37.980053 246.81404Q37.870678 246.79842 37.823803 246.75154Q37.776928 246.70467 37.776928 246.62654L37.776928 246.25154Q37.480053 246.56404 37.105053 246.75154Q36.730053 246.92342 36.261303 246.92342Q35.886303 246.92342 35.558178 246.81404Q35.245678 246.72029 35.011303 246.53279Q34.776928 246.32967 34.636303 246.04842Q34.511303 245.75154 34.511303 245.36092Q34.511303 244.93904 34.667553 244.64217Q34.839428 244.32967 35.167553 244.12654Q35.495678 243.92342 35.980053 243.82967Q36.464428 243.73592 37.105053 243.73592L37.573803 243.73592L37.573803 243.43904Q37.573803 243.22029 37.526928 243.04842Q37.480053 242.87654 37.370678 242.76717Q37.261303 242.65779 37.089428 242.61092Q36.917553 242.54842 36.667553 242.54842Q36.323803 242.54842 36.058178 242.62654Q35.792553 242.68904 35.589428 242.78279Q35.386303 242.87654 35.245678 242.95467Q35.105053 243.03279 35.026928 243.03279Q34.964428 243.03279 34.917553 243.00154Q34.870678 242.95467 34.839428 242.89217Q34.808178 242.81404 34.792553 242.72029Q34.776928 242.61092 34.776928 242.48592Q34.776928 242.31404 34.808178 242.22029Q34.839428 242.12654 34.901928 242.04842Q34.980053 241.97029 35.167553 241.87654Q35.355053 241.78279 35.605053 241.70467Q35.870678 241.62654 36.167553 241.57967Q36.464428 241.51717 36.776928 241.51717Q37.339428 241.51717 37.730053 241.62654Q38.136303 241.73592 38.386303 241.97029Q38.651928 242.18904 38.776928 242.54842Q38.901928 242.90779 38.901928 243.40779L38.901928 246.62654ZM37.573803 244.57967L37.058178 244.57967Q36.730053 244.57967 36.495678 244.62654Q36.261303 244.67342 36.120678 244.78279Q35.980053 244.87654 35.901928 245.01717Q35.839428 245.14217 35.839428 245.31404Q35.839428 245.62654 36.026928 245.79842Q36.214428 245.97029 36.558178 245.97029Q36.839428 245.97029 37.073803 245.82967Q37.323803 245.67342 37.573803 245.39217L37.573803 244.57967ZM46.011303 244.72029Q46.011303 245.26717 45.808178 245.68904Q45.605053 246.09529 45.245678 246.37654Q44.901928 246.64217 44.433178 246.78279Q43.980053 246.92342 43.433178 246.92342Q43.073803 246.92342 42.761303 246.86092Q42.464428 246.79842 42.230053 246.72029Q41.995678 246.64217 41.823803 246.54842Q41.667553 246.45467 41.589428 246.39217Q41.526928 246.31404 41.495678 246.18904Q41.480053 246.04842 41.480053 245.79842Q41.480053 245.64217 41.480053 245.53279Q41.495678 245.40779 41.511303 245.34529Q41.542553 245.26717 41.573803 245.25154Q41.620678 245.22029 41.683178 245.22029Q41.761303 245.22029 41.886303 245.31404Q42.026928 245.39217 42.245678 245.50154Q42.464428 245.61092 42.761303 245.70467Q43.058178 245.78279 43.448803 245.78279Q43.698803 245.78279 43.901928 245.72029Q44.105053 245.65779 44.245678 245.54842Q44.401928 245.43904 44.464428 245.26717Q44.542553 245.09529 44.542553 244.89217Q44.542553 244.65779 44.417553 244.50154Q44.292553 244.32967 44.073803 244.20467Q43.870678 244.06404 43.605053 243.95467Q43.355053 243.82967 43.073803 243.70467Q42.792553 243.56404 42.526928 243.40779Q42.261303 243.23592 42.058178 243.01717Q41.855053 242.78279 41.714428 242.47029Q41.589428 242.15779 41.589428 241.72029Q41.589428 241.23592 41.776928 240.86092Q41.964428 240.47029 42.276928 240.22029Q42.589428 239.97029 43.011303 239.84529Q43.448803 239.72029 43.917553 239.72029Q44.167553 239.72029 44.417553 239.76717Q44.667553 239.79842 44.870678 239.86092Q45.089428 239.92342 45.261303 240.01717Q45.433178 240.09529 45.480053 240.15779Q45.542553 240.20467 45.558178 240.23592Q45.573803 240.26717 45.589428 240.32967Q45.605053 240.39217 45.605053 240.48592Q45.605053 240.57967 45.605053 240.72029Q45.605053 240.87654 45.589428 240.98592Q45.589428 241.09529 45.573803 241.17342Q45.558178 241.23592 45.511303 241.26717Q45.480053 241.29842 45.433178 241.29842Q45.370678 241.29842 45.230053 241.22029Q45.105053 241.14217 44.917553 241.06404Q44.730053 240.97029 44.480053 240.90779Q44.245678 240.82967 43.948803 240.82967Q43.714428 240.82967 43.542553 240.89217Q43.370678 240.93904 43.245678 241.04842Q43.136303 241.14217 43.073803 241.28279Q43.026928 241.42342 43.026928 241.57967Q43.026928 241.79842 43.151928 241.97029Q43.276928 242.14217 43.480053 242.28279Q43.698803 242.40779 43.964428 242.53279Q44.245678 242.64217 44.511303 242.76717Q44.792553 242.89217 45.058178 243.06404Q45.339428 243.22029 45.542553 243.45467Q45.761303 243.67342 45.886303 243.98592Q46.011303 244.29842 46.011303 244.72029ZM50.433178 245.84529Q50.433178 245.98592 50.417553 246.07967Q50.417553 246.17342 50.401928 246.25154Q50.401928 246.31404 50.370678 246.36092Q50.355053 246.39217 50.292553 246.45467Q50.230053 246.51717 50.073803 246.61092Q49.917553 246.68904 49.714428 246.76717Q49.526928 246.82967 49.292553 246.87654Q49.058178 246.92342 48.808178 246.92342Q48.245678 246.92342 47.823803 246.75154Q47.401928 246.57967 47.105053 246.25154Q46.823803 245.90779 46.667553 245.42342Q46.526928 244.93904 46.526928 244.31404Q46.526928 243.59529 46.698803 243.07967Q46.886303 242.54842 47.198803 242.20467Q47.526928 241.86092 47.964428 241.68904Q48.401928 241.51717 48.933178 241.51717Q49.151928 241.51717 49.355053 241.56404Q49.558178 241.59529 49.730053 241.65779Q49.917553 241.72029 50.058178 241.81404Q50.214428 241.89217 50.261303 241.95467Q50.323803 242.00154 50.339428 242.04842Q50.370678 242.09529 50.386303 242.15779Q50.401928 242.22029 50.401928 242.31404Q50.417553 242.40779 50.417553 242.53279Q50.417553 242.84529 50.355053 242.97029Q50.308178 243.09529 50.230053 243.09529Q50.136303 243.09529 50.026928 243.03279Q49.933178 242.95467 49.792553 242.86092Q49.651928 242.76717 49.448803 242.70467Q49.261303 242.62654 48.995678 242.62654Q48.464428 242.62654 48.183178 243.03279Q47.901928 243.42342 47.901928 244.22029Q47.901928 244.59529 47.964428 244.89217Q48.042553 245.18904 48.183178 245.39217Q48.323803 245.59529 48.526928 245.68904Q48.730053 245.78279 49.011303 245.78279Q49.292553 245.78279 49.495678 245.70467Q49.698803 245.62654 49.839428 245.53279Q49.995678 245.42342 50.089428 245.34529Q50.198803 245.25154 50.261303 245.25154Q50.308178 245.25154 50.339428 245.28279Q50.386303 245.29842 50.401928 245.37654Q50.417553 245.45467 50.417553 245.56404Q50.433178 245.67342 50.433178 245.84529ZM53.167553 246.61092Q53.167553 246.67342 53.136303 246.72029Q53.105053 246.75154 53.026928 246.78279Q52.948803 246.79842 52.808178 246.81404Q52.683178 246.82967 52.495678 246.82967Q52.292553 246.82967 52.151928 246.81404Q52.026928 246.79842 51.948803 246.78279Q51.870678 246.75154 51.839428 246.72029Q51.808178 246.67342 51.808178 246.61092L51.808178 241.82967Q51.808178 241.78279 51.839428 241.75154Q51.870678 241.70467 51.948803 241.67342Q52.026928 241.64217 52.151928 241.62654Q52.292553 241.61092 52.495678 241.61092Q52.683178 241.61092 52.808178 241.62654Q52.948803 241.64217 53.026928 241.67342Q53.105053 241.70467 53.136303 241.75154Q53.167553 241.78279 53.167553 241.82967L53.167553 246.61092ZM53.261303 240.20467Q53.261303 240.61092 53.089428 240.76717Q52.933178 240.92342 52.480053 240.92342Q52.026928 240.92342 51.870678 240.78279Q51.714428 240.62654 51.714428 240.23592Q51.714428 239.81404 51.870678 239.65779Q52.042553 239.50154 52.495678 239.50154Q52.948803 239.50154 53.105053 239.65779Q53.261303 239.81404 53.261303 240.20467ZM59.245678 244.07967Q59.245678 244.32967 59.120678 244.45467Q59.011303 244.56404 58.823803 244.56404L55.901928 244.56404Q55.901928 244.87654 55.980053 245.12654Q56.058178 245.37654 56.214428 245.54842Q56.370678 245.72029 56.620678 245.81404Q56.870678 245.90779 57.214428 245.90779Q57.573803 245.90779 57.839428 245.86092Q58.105053 245.79842 58.292553 245.73592Q58.495678 245.67342 58.620678 245.62654Q58.761303 245.57967 58.839428 245.57967Q58.886303 245.57967 58.917553 245.59529Q58.948803 245.61092 58.964428 245.65779Q58.995678 245.70467 58.995678 245.79842Q59.011303 245.89217 59.011303 246.01717Q59.011303 246.14217 58.995678 246.22029Q58.995678 246.29842 58.980053 246.36092Q58.980053 246.42342 58.948803 246.47029Q58.933178 246.50154 58.901928 246.54842Q58.870678 246.57967 58.714428 246.64217Q58.558178 246.70467 58.308178 246.76717Q58.073803 246.82967 57.761303 246.87654Q57.448803 246.92342 57.089428 246.92342Q56.464428 246.92342 55.980053 246.76717Q55.495678 246.59529 55.167553 246.26717Q54.855053 245.93904 54.683178 245.43904Q54.526928 244.93904 54.526928 244.26717Q54.526928 243.64217 54.698803 243.12654Q54.870678 242.61092 55.183178 242.25154Q55.495678 241.89217 55.948803 241.70467Q56.401928 241.51717 56.980053 241.51717Q57.573803 241.51717 57.995678 241.70467Q58.433178 241.87654 58.698803 242.18904Q58.980053 242.50154 59.105053 242.93904Q59.245678 243.36092 59.245678 243.86092L59.245678 244.07967ZM57.933178 243.68904Q57.948803 243.12654 57.698803 242.79842Q57.448803 242.47029 56.948803 242.47029Q56.683178 242.47029 56.495678 242.57967Q56.308178 242.67342 56.183178 242.84529Q56.058178 243.00154 55.980053 243.22029Q55.917553 243.43904 55.901928 243.68904L57.933178 243.68904ZM65.38631 246.61092Q65.38631 246.67342 65.35506 246.72029Q65.32381 246.75154 65.24568 246.78279Q65.16756 246.79842 65.04256 246.81404Q64.91756 246.82967 64.71443 246.82967Q64.52693 246.82967 64.38631 246.81404Q64.26131 246.79842 64.18318 246.78279Q64.10506 246.75154 64.07381 246.72029Q64.04256 246.67342 64.04256 246.61092L64.04256 243.87654Q64.04256 243.53279 63.980053 243.34529Q63.933178 243.14217 63.839428 243.00154Q63.745678 242.84529 63.589428 242.76717Q63.433178 242.68904 63.230053 242.68904Q62.980053 242.68904 62.714428 242.87654Q62.448803 243.06404 62.167553 243.42342L62.167553 246.61092Q62.167553 246.67342 62.136303 246.72029Q62.105053 246.75154 62.026928 246.78279Q61.948803 246.79842 61.808178 246.81404Q61.683178 246.82967 61.495678 246.82967Q61.292553 246.82967 61.151928 246.81404Q61.026928 246.79842 60.948803 246.78279Q60.870678 246.75154 60.839428 246.72029Q60.808178 246.67342 60.808178 246.61092L60.808178 241.82967Q60.808178 241.76717 60.839428 241.73592Q60.870678 241.68904 60.933178 241.67342Q61.011303 241.64217 61.120678 241.62654Q61.230053 241.61092 61.386303 241.61092Q61.558178 241.61092 61.667553 241.62654Q61.792553 241.64217 61.855053 241.67342Q61.917553 241.68904 61.933178 241.73592Q61.964428 241.76717 61.964428 241.82967L61.964428 242.37654Q62.370678 241.95467 62.776928 241.73592Q63.183178 241.51717 63.636303 241.51717Q64.12068 241.51717 64.44881 241.68904Q64.79256 241.84529 64.99568 242.12654Q65.21443 242.39217 65.29256 242.76717Q65.38631 243.14217 65.38631 243.65779L65.38631 246.61092ZM70.43318 245.84529Q70.43318 245.98592 70.41756 246.07967Q70.41756 246.17342 70.40193 246.25154Q70.40193 246.31404 70.37068 246.36092Q70.35506 246.39217 70.29256 246.45467Q70.23006 246.51717 70.07381 246.61092Q69.91756 246.68904 69.71443 246.76717Q69.52693 246.82967 69.29256 246.87654Q69.05818 246.92342 68.80818 246.92342Q68.24568 246.92342 67.82381 246.75154Q67.40193 246.57967 67.10506 246.25154Q66.82381 245.90779 66.66756 245.42342Q66.52693 244.93904 66.52693 244.31404Q66.52693 243.59529 66.69881 243.07967Q66.88631 242.54842 67.19881 242.20467Q67.52693 241.86092 67.96443 241.68904Q68.40193 241.51717 68.93318 241.51717Q69.15193 241.51717 69.35506 241.56404Q69.55818 241.59529 69.73006 241.65779Q69.91756 241.72029 70.05818 241.81404Q70.21443 241.89217 70.26131 241.95467Q70.32381 242.00154 70.33943 242.04842Q70.37068 242.09529 70.38631 242.15779Q70.40193 242.22029 70.40193 242.31404Q70.41756 242.40779 70.41756 242.53279Q70.41756 242.84529 70.35506 242.97029Q70.30818 243.09529 70.23006 243.09529Q70.13631 243.09529 70.02693 243.03279Q69.93318 242.95467 69.79256 242.86092Q69.65193 242.76717 69.44881 242.70467Q69.26131 242.62654 68.99568 242.62654Q68.46443 242.62654 68.18318 243.03279Q67.90193 243.42342 67.90193 244.22029Q67.90193 244.59529 67.96443 244.89217Q68.04256 245.18904 68.18318 245.39217Q68.32381 245.59529 68.52693 245.68904Q68.73006 245.78279 69.01131 245.78279Q69.29256 245.78279 69.49568 245.70467Q69.69881 245.62654 69.83943 245.53279Q69.99568 245.42342 70.08943 245.34529Q70.19881 245.25154 70.26131 245.25154Q70.30818 245.25154 70.33943 245.28279Q70.38631 245.29842 70.40193 245.37654Q70.41756 245.45467 70.41756 245.56404Q70.43318 245.67342 70.43318 245.84529ZM76.24568 244.07967Q76.24568 244.32967 76.12068 244.45467Q76.01131 244.56404 75.82381 244.56404L72.90193 244.56404Q72.90193 244.87654 72.98006 245.12654Q73.05818 245.37654 73.21443 245.54842Q73.37068 245.72029 73.62068 245.81404Q73.87068 245.90779 74.21443 245.90779Q74.57381 245.90779 74.83943 245.86092Q75.10506 245.79842 75.29256 245.73592Q75.49568 245.67342 75.62068 245.62654Q75.76131 245.57967 75.83943 245.57967Q75.88631 245.57967 75.91756 245.59529Q75.94881 245.61092 75.96443 245.65779Q75.99568 245.70467 75.99568 245.79842Q76.01131 245.89217 76.01131 246.01717Q76.01131 246.14217 75.99568 246.22029Q75.99568 246.29842 75.98006 246.36092Q75.98006 246.42342 75.94881 246.47029Q75.93318 246.50154 75.90193 246.54842Q75.87068 246.57967 75.71443 246.64217Q75.55818 246.70467 75.30818 246.76717Q75.07381 246.82967 74.76131 246.87654Q74.44881 246.92342 74.08943 246.92342Q73.46443 246.92342 72.98006 246.76717Q72.49568 246.59529 72.16756 246.26717Q71.85506 245.93904 71.68318 245.43904Q71.52693 244.93904 71.52693 244.26717Q71.52693 243.64217 71.69881 243.12654Q71.87068 242.61092 72.18318 242.25154Q72.49568 241.89217 72.94881 241.70467Q73.40193 241.51717 73.98006 241.51717Q74.57381 241.51717 74.99568 241.70467Q75.43318 241.87654 75.69881 242.18904Q75.98006 242.50154 76.10506 242.93904Q76.24568 243.36092 76.24568 243.86092L76.24568 244.07967ZM74.93318 243.68904Q74.94881 243.12654 74.69881 242.79842Q74.44881 242.47029 73.94881 242.47029Q73.68318 242.47029 73.49568 242.57967Q73.30818 242.67342 73.18318 242.84529Q73.05818 243.00154 72.98006 243.22029Q72.91756 243.43904 72.90193 243.68904L74.93318 243.68904Z" fill-rule="nonzero"/><path fill="#000000" d="M43.933178 206.69807Q43.933178 207.05745 43.823803 207.36995Q43.730053 207.66682 43.542553 207.9012Q43.355053 208.11995 43.105053 208.29182Q42.870678 208.4637 42.558178 208.57307Q42.261303 208.66682 41.917553 208.72932Q41.573803 208.7762 41.167553 208.7762L39.308178 208.7762Q39.136303 208.7762 39.011303 208.68245Q38.886303 208.57307 38.886303 208.32307L38.886303 202.2762Q38.886303 202.04182 39.011303 201.93245Q39.136303 201.82307 39.308178 201.82307L41.058178 201.82307Q41.698803 201.82307 42.136303 201.93245Q42.589428 202.04182 42.886303 202.26057Q43.183178 202.47932 43.339428 202.80745Q43.511303 203.13557 43.511303 203.5887Q43.511303 203.8387 43.448803 204.07307Q43.386303 204.29182 43.261303 204.47932Q43.136303 204.6512 42.948803 204.79182Q42.776928 204.93245 42.542553 205.0262Q42.839428 205.07307 43.089428 205.2137Q43.339428 205.3387 43.526928 205.55745Q43.714428 205.76057 43.823803 206.05745Q43.933178 206.3387 43.933178 206.69807ZM42.105053 203.76057Q42.105053 203.55745 42.026928 203.4012Q41.964428 203.22932 41.839428 203.11995Q41.714428 202.99495 41.511303 202.94807Q41.323803 202.88557 40.995678 202.88557L40.276928 202.88557L40.276928 204.68245L41.073803 204.68245Q41.370678 204.68245 41.558178 204.61995Q41.745678 204.54182 41.855053 204.41682Q41.980053 204.29182 42.042553 204.11995Q42.105053 203.94807 42.105053 203.76057ZM42.464428 206.74495Q42.464428 206.49495 42.370678 206.30745Q42.292553 206.11995 42.136303 205.99495Q41.980053 205.85432 41.745678 205.79182Q41.511303 205.7137 41.120678 205.7137L40.276928 205.7137L40.276928 207.69807L41.292553 207.69807Q41.589428 207.69807 41.792553 207.63557Q41.995678 207.57307 42.136303 207.4637Q42.292553 207.3387 42.370678 207.1512Q42.464428 206.9637 42.464428 206.74495ZM48.901928 208.60432Q48.901928 208.68245 48.839428 208.72932Q48.792553 208.7762 48.667553 208.79182Q48.558178 208.80745 48.323803 208.80745Q48.089428 208.80745 47.980053 208.79182Q47.870678 208.7762 47.823803 208.72932Q47.776928 208.68245 47.776928 208.60432L47.776928 208.22932Q47.480053 208.54182 47.105053 208.72932Q46.730053 208.9012 46.261303 208.9012Q45.886303 208.9012 45.558178 208.79182Q45.245678 208.69807 45.011303 208.51057Q44.776928 208.30745 44.636303 208.0262Q44.511303 207.72932 44.511303 207.3387Q44.511303 206.91682 44.667553 206.61995Q44.839428 206.30745 45.167553 206.10432Q45.495678 205.9012 45.980053 205.80745Q46.464428 205.7137 47.105053 205.7137L47.573803 205.7137L47.573803 205.41682Q47.573803 205.19807 47.526928 205.0262Q47.480053 204.85432 47.370678 204.74495Q47.261303 204.63557 47.089428 204.5887Q46.917553 204.5262 46.667553 204.5262Q46.323803 204.5262 46.058178 204.60432Q45.792553 204.66682 45.589428 204.76057Q45.386303 204.85432 45.245678 204.93245Q45.105053 205.01057 45.026928 205.01057Q44.964428 205.01057 44.917553 204.97932Q44.870678 204.93245 44.839428 204.86995Q44.808178 204.79182 44.792553 204.69807Q44.776928 204.5887 44.776928 204.4637Q44.776928 204.29182 44.808178 204.19807Q44.839428 204.10432 44.901928 204.0262Q44.980053 203.94807 45.167553 203.85432Q45.355053 203.76057 45.605053 203.68245Q45.870678 203.60432 46.167553 203.55745Q46.464428 203.49495 46.776928 203.49495Q47.339428 203.49495 47.730053 203.60432Q48.136303 203.7137 48.386303 203.94807Q48.651928 204.16682 48.776928 204.5262Q48.901928 204.88557 48.901928 205.38557L48.901928 208.60432ZM47.573803 206.55745L47.058178 206.55745Q46.730053 206.55745 46.495678 206.60432Q46.261303 206.6512 46.120678 206.76057Q45.980053 206.85432 45.901928 206.99495Q45.839428 207.11995 45.839428 207.29182Q45.839428 207.60432 46.026928 207.7762Q46.214428 207.94807 46.558178 207.94807Q46.839428 207.94807 47.073803 207.80745Q47.323803 207.6512 47.573803 207.36995L47.573803 206.55745ZM53.433178 207.82307Q53.433178 207.9637 53.417553 208.05745Q53.417553 208.1512 53.401928 208.22932Q53.401928 208.29182 53.370678 208.3387Q53.355053 208.36995 53.292553 208.43245Q53.230053 208.49495 53.073803 208.5887Q52.917553 208.66682 52.714428 208.74495Q52.526928 208.80745 52.292553 208.85432Q52.058178 208.9012 51.808178 208.9012Q51.245678 208.9012 50.823803 208.72932Q50.401928 208.55745 50.105053 208.22932Q49.823803 207.88557 49.667553 207.4012Q49.526928 206.91682 49.526928 206.29182Q49.526928 205.57307 49.698803 205.05745Q49.886303 204.5262 50.198803 204.18245Q50.526928 203.8387 50.964428 203.66682Q51.401928 203.49495 51.933178 203.49495Q52.151928 203.49495 52.355053 203.54182Q52.558178 203.57307 52.730053 203.63557Q52.917553 203.69807 53.058178 203.79182Q53.214428 203.86995 53.261303 203.93245Q53.323803 203.97932 53.339428 204.0262Q53.370678 204.07307 53.386303 204.13557Q53.401928 204.19807 53.401928 204.29182Q53.417553 204.38557 53.417553 204.51057Q53.417553 204.82307 53.355053 204.94807Q53.308178 205.07307 53.230053 205.07307Q53.136303 205.07307 53.026928 205.01057Q52.933178 204.93245 52.792553 204.8387Q52.651928 204.74495 52.448803 204.68245Q52.261303 204.60432 51.995678 204.60432Q51.464428 204.60432 51.183178 205.01057Q50.901928 205.4012 50.901928 206.19807Q50.901928 206.57307 50.964428 206.86995Q51.042553 207.16682 51.183178 207.36995Q51.323803 207.57307 51.526928 207.66682Q51.730053 207.76057 52.011303 207.76057Q52.292553 207.76057 52.495678 207.68245Q52.698803 207.60432 52.839428 207.51057Q52.995678 207.4012 53.089428 207.32307Q53.198803 207.22932 53.261303 207.22932Q53.308178 207.22932 53.339428 207.26057Q53.386303 207.2762 53.401928 207.35432Q53.417553 207.43245 53.417553 207.54182Q53.433178 207.6512 53.433178 207.82307ZM59.261303 208.60432Q59.261303 208.6512 59.230053 208.69807Q59.214428 208.72932 59.136303 208.76057Q59.058178 208.7762 58.917553 208.79182Q58.776928 208.80745 58.573803 208.80745Q58.355053 208.80745 58.214428 208.79182Q58.073803 208.79182 57.980053 208.7762Q57.901928 208.74495 57.839428 208.69807Q57.792553 208.6512 57.761303 208.5887L56.167553 206.05745L56.167553 208.5887Q56.167553 208.6512 56.136303 208.69807Q56.105053 208.72932 56.026928 208.76057Q55.948803 208.7762 55.808178 208.79182Q55.683178 208.80745 55.495678 208.80745Q55.292553 208.80745 55.151928 208.79182Q55.026928 208.7762 54.948803 208.76057Q54.870678 208.72932 54.839428 208.69807Q54.808178 208.6512 54.808178 208.5887L54.808178 201.5262Q54.808178 201.47932 54.839428 201.43245Q54.870678 201.38557 54.948803 201.36995Q55.026928 201.3387 55.151928 201.32307Q55.292553 201.29182 55.495678 201.29182Q55.683178 201.29182 55.808178 201.32307Q55.948803 201.3387 56.026928 201.36995Q56.105053 201.38557 56.136303 201.43245Q56.167553 201.47932 56.167553 201.5262L56.167553 205.72932L57.589428 203.82307Q57.620678 203.76057 57.667553 203.7137Q57.730053 203.66682 57.823803 203.6512Q57.917553 203.61995 58.042553 203.60432Q58.183178 203.5887 58.386303 203.5887Q58.573803 203.5887 58.714428 203.60432Q58.855053 203.61995 58.933178 203.6512Q59.011303 203.66682 59.042553 203.7137Q59.089428 203.74495 59.089428 203.80745Q59.089428 203.88557 59.042553 203.97932Q58.995678 204.07307 58.917553 204.16682L57.526928 205.76057L59.136303 208.2762Q59.214428 208.38557 59.230053 208.4637Q59.261303 208.54182 59.261303 208.60432ZM64.24568 206.05745Q64.24568 206.30745 64.12068 206.43245Q64.01131 206.54182 63.823803 206.54182L60.901928 206.54182Q60.901928 206.85432 60.980053 207.10432Q61.058178 207.35432 61.214428 207.5262Q61.370678 207.69807 61.620678 207.79182Q61.870678 207.88557 62.214428 207.88557Q62.573803 207.88557 62.839428 207.8387Q63.105053 207.7762 63.292553 207.7137Q63.495678 207.6512 63.620678 207.60432Q63.761303 207.55745 63.839428 207.55745Q63.886303 207.55745 63.917553 207.57307Q63.948803 207.5887 63.964428 207.63557Q63.995678 207.68245 63.995678 207.7762Q64.01131 207.86995 64.01131 207.99495Q64.01131 208.11995 63.995678 208.19807Q63.995678 208.2762 63.980053 208.3387Q63.980053 208.4012 63.948803 208.44807Q63.933178 208.47932 63.901928 208.5262Q63.870678 208.55745 63.714428 208.61995Q63.558178 208.68245 63.308178 208.74495Q63.073803 208.80745 62.761303 208.85432Q62.448803 208.9012 62.089428 208.9012Q61.464428 208.9012 60.980053 208.74495Q60.495678 208.57307 60.167553 208.24495Q59.855053 207.91682 59.683178 207.41682Q59.526928 206.91682 59.526928 206.24495Q59.526928 205.61995 59.698803 205.10432Q59.870678 204.5887 60.183178 204.22932Q60.495678 203.86995 60.948803 203.68245Q61.401928 203.49495 61.980053 203.49495Q62.573803 203.49495 62.995678 203.68245Q63.433178 203.85432 63.698803 204.16682Q63.980053 204.47932 64.10506 204.91682Q64.24568 205.3387 64.24568 205.8387L64.24568 206.05745ZM62.933178 205.66682Q62.948803 205.10432 62.698803 204.7762Q62.448803 204.44807 61.948803 204.44807Q61.683178 204.44807 61.495678 204.55745Q61.308178 204.6512 61.183178 204.82307Q61.058178 204.97932 60.980053 205.19807Q60.917553 205.41682 60.901928 205.66682L62.933178 205.66682ZM70.38631 208.5887Q70.38631 208.6512 70.35506 208.69807Q70.32381 208.72932 70.24568 208.76057Q70.16756 208.7762 70.04256 208.79182Q69.91756 208.80745 69.71443 208.80745Q69.52693 208.80745 69.38631 208.79182Q69.26131 208.7762 69.18318 208.76057Q69.10506 208.72932 69.07381 208.69807Q69.04256 208.6512 69.04256 208.5887L69.04256 205.85432Q69.04256 205.51057 68.98006 205.32307Q68.93318 205.11995 68.83943 204.97932Q68.74568 204.82307 68.58943 204.74495Q68.43318 204.66682 68.23006 204.66682Q67.98006 204.66682 67.71443 204.85432Q67.44881 205.04182 67.16756 205.4012L67.16756 208.5887Q67.16756 208.6512 67.13631 208.69807Q67.10506 208.72932 67.02693 208.76057Q66.94881 208.7762 66.80818 208.79182Q66.68318 208.80745 66.49568 208.80745Q66.29256 208.80745 66.15193 208.79182Q66.02693 208.7762 65.94881 208.76057Q65.87068 208.72932 65.83943 208.69807Q65.80818 208.6512 65.80818 208.5887L65.80818 203.80745Q65.80818 203.74495 65.83943 203.7137Q65.87068 203.66682 65.93318 203.6512Q66.01131 203.61995 66.12068 203.60432Q66.23006 203.5887 66.38631 203.5887Q66.55818 203.5887 66.66756 203.60432Q66.79256 203.61995 66.85506 203.6512Q66.91756 203.66682 66.93318 203.7137Q66.96443 203.74495 66.96443 203.80745L66.96443 204.35432Q67.37068 203.93245 67.77693 203.7137Q68.18318 203.49495 68.63631 203.49495Q69.12068 203.49495 69.44881 203.66682Q69.79256 203.82307 69.99568 204.10432Q70.21443 204.36995 70.29256 204.74495Q70.38631 205.11995 70.38631 205.63557L70.38631 208.5887ZM76.35506 208.5887Q76.35506 208.6512 76.32381 208.69807Q76.30818 208.72932 76.23006 208.76057Q76.16756 208.79182 76.05818 208.79182Q75.94881 208.80745 75.79256 208.80745Q75.62068 208.80745 75.51131 208.79182Q75.40193 208.79182 75.33943 208.76057Q75.27693 208.72932 75.24568 208.69807Q75.21443 208.6512 75.21443 208.5887L75.21443 208.05745Q74.83943 208.4637 74.43318 208.68245Q74.02693 208.9012 73.54256 208.9012Q72.99568 208.9012 72.60506 208.69807Q72.23006 208.47932 71.99568 208.11995Q71.76131 207.76057 71.65193 207.2762Q71.54256 206.79182 71.54256 206.26057Q71.54256 205.61995 71.66756 205.11995Q71.80818 204.60432 72.07381 204.24495Q72.33943 203.88557 72.73006 203.69807Q73.12068 203.49495 73.63631 203.49495Q74.04256 203.49495 74.37068 203.66682Q74.69881 203.82307 75.01131 204.13557L75.01131 201.54182Q75.01131 201.49495 75.04256 201.44807Q75.07381 201.4012 75.15193 201.38557Q75.23006 201.35432 75.35506 201.3387Q75.48006 201.32307 75.68318 201.32307Q75.88631 201.32307 76.01131 201.3387Q76.13631 201.35432 76.21443 201.38557Q76.29256 201.4012 76.32381 201.44807Q76.35506 201.49495 76.35506 201.54182L76.35506 208.5887ZM75.01131 205.38557Q74.73006 205.0262 74.46443 204.8387Q74.19881 204.63557 73.90193 204.63557Q73.63631 204.63557 73.44881 204.7762Q73.26131 204.9012 73.13631 205.11995Q73.02693 205.3387 72.96443 205.61995Q72.91756 205.88557 72.91756 206.16682Q72.91756 206.47932 72.96443 206.76057Q73.01131 207.04182 73.12068 207.26057Q73.23006 207.47932 73.40193 207.61995Q73.58943 207.76057 73.87068 207.76057Q74.01131 207.76057 74.13631 207.72932Q74.27693 207.68245 74.41756 207.5887Q74.55818 207.49495 74.69881 207.35432Q74.83943 207.19807 75.01131 206.97932L75.01131 205.38557Z" fill-rule="nonzero"/><path fill="#000000" d="M51.995678 170.5665Q51.995678 170.61337 51.964428 170.66025Q51.933178 170.70712 51.855053 170.73837Q51.776928 170.754 51.651928 170.76962Q51.526928 170.78525 51.323803 170.78525Q51.136303 170.78525 50.995678 170.76962Q50.870678 170.754 50.792553 170.73837Q50.714428 170.70712 50.683178 170.66025Q50.651928 170.61337 50.651928 170.5665L50.651928 164.91025L50.651928 164.91025L48.636303 170.55087Q48.605053 170.629 48.558178 170.67587Q48.511303 170.72275 48.417553 170.754Q48.339428 170.76962 48.214428 170.76962Q48.089428 170.78525 47.901928 170.78525Q47.730053 170.78525 47.589428 170.76962Q47.464428 170.754 47.370678 170.73837Q47.292553 170.70712 47.245678 170.66025Q47.198803 170.61337 47.183178 170.55087L45.245678 164.91025L45.230053 164.91025L45.230053 170.5665Q45.230053 170.61337 45.198803 170.66025Q45.167553 170.70712 45.089428 170.73837Q45.011303 170.754 44.886303 170.76962Q44.761303 170.78525 44.558178 170.78525Q44.370678 170.78525 44.230053 170.76962Q44.105053 170.754 44.026928 170.73837Q43.948803 170.70712 43.917553 170.66025Q43.886303 170.61337 43.886303 170.5665L43.886303 164.36337Q43.886303 164.09775 44.026928 163.95712Q44.183178 163.80087 44.433178 163.80087L45.355053 163.80087Q45.589428 163.80087 45.761303 163.84775Q45.948803 163.879 46.073803 163.97275Q46.214428 164.0665 46.292553 164.22275Q46.386303 164.379 46.448803 164.59775L47.948803 168.73837L47.964428 168.73837L49.526928 164.61337Q49.605053 164.39462 49.683178 164.23837Q49.761303 164.08212 49.870678 163.98837Q49.980053 163.879 50.136303 163.84775Q50.292553 163.80087 50.480053 163.80087L51.433178 163.80087Q51.573803 163.80087 51.683178 163.84775Q51.792553 163.879 51.855053 163.95712Q51.917553 164.01962 51.948803 164.129Q51.995678 164.23837 51.995678 164.36337L51.995678 170.5665ZM58.651928 168.129Q58.651928 168.73837 58.495678 169.254Q58.339428 169.754 58.011303 170.11337Q57.683178 170.47275 57.183178 170.67587Q56.698803 170.879 56.026928 170.879Q55.386303 170.879 54.917553 170.70712Q54.448803 170.51962 54.136303 170.1915Q53.823803 169.84775 53.667553 169.36337Q53.526928 168.86337 53.526928 168.22275Q53.526928 167.61337 53.683178 167.11337Q53.855053 166.59775 54.183178 166.23837Q54.511303 165.879 54.995678 165.67587Q55.495678 165.47275 56.151928 165.47275Q56.792553 165.47275 57.261303 165.64462Q57.745678 165.8165 58.042553 166.16025Q58.355053 166.504 58.495678 167.004Q58.651928 167.48837 58.651928 168.129ZM57.261303 168.17587Q57.261303 167.83212 57.198803 167.53525Q57.151928 167.22275 57.011303 167.004Q56.886303 166.78525 56.651928 166.66025Q56.433178 166.53525 56.105053 166.53525Q55.808178 166.53525 55.573803 166.66025Q55.355053 166.76962 55.198803 166.98837Q55.058178 167.1915 54.980053 167.48837Q54.917553 167.78525 54.917553 168.16025Q54.917553 168.51962 54.964428 168.8165Q55.026928 169.11337 55.151928 169.33212Q55.292553 169.55087 55.511303 169.67587Q55.745678 169.80087 56.073803 169.80087Q56.386303 169.80087 56.605053 169.6915Q56.839428 169.58212 56.980053 169.379Q57.120678 169.16025 57.183178 168.86337Q57.261303 168.5665 57.261303 168.17587ZM64.63631 168.11337Q64.63631 168.754 64.49568 169.26962Q64.35506 169.76962 64.08943 170.129Q63.823803 170.48837 63.433178 170.6915Q63.058178 170.879 62.573803 170.879Q62.339428 170.879 62.120678 170.83212Q61.917553 170.78525 61.714428 170.6915Q61.526928 170.58212 61.339428 170.42587Q61.167553 170.26962 60.964428 170.05087L60.964428 170.5665Q60.964428 170.629 60.933178 170.67587Q60.901928 170.70712 60.839428 170.73837Q60.776928 170.76962 60.651928 170.76962Q60.542553 170.78525 60.386303 170.78525Q60.214428 170.78525 60.105053 170.76962Q59.995678 170.76962 59.933178 170.73837Q59.870678 170.70712 59.839428 170.67587Q59.808178 170.629 59.808178 170.5665L59.808178 163.504Q59.808178 163.45712 59.839428 163.41025Q59.870678 163.36337 59.948803 163.34775Q60.026928 163.3165 60.151928 163.30087Q60.292553 163.26962 60.495678 163.26962Q60.683178 163.26962 60.808178 163.30087Q60.948803 163.3165 61.026928 163.34775Q61.105053 163.36337 61.136303 163.41025Q61.167553 163.45712 61.167553 163.504L61.167553 166.16025Q61.355053 165.97275 61.526928 165.84775Q61.714428 165.72275 61.886303 165.64462Q62.073803 165.55087 62.261303 165.51962Q62.464428 165.47275 62.683178 165.47275Q63.214428 165.47275 63.573803 165.6915Q63.948803 165.89462 64.18318 166.254Q64.41756 166.61337 64.52693 167.09775Q64.63631 167.58212 64.63631 168.11337ZM63.230053 168.20712Q63.230053 167.89462 63.183178 167.61337Q63.136303 167.33212 63.026928 167.11337Q62.917553 166.89462 62.730053 166.76962Q62.558178 166.629 62.276928 166.629Q62.151928 166.629 62.011303 166.67587Q61.886303 166.70712 61.745678 166.80087Q61.620678 166.879 61.464428 167.03525Q61.323803 167.17587 61.167553 167.39462L61.167553 168.98837Q61.448803 169.34775 61.714428 169.53525Q61.980053 169.72275 62.261303 169.72275Q62.526928 169.72275 62.698803 169.59775Q62.886303 169.45712 62.995678 169.254Q63.120678 169.03525 63.167553 168.76962Q63.230053 168.48837 63.230053 168.20712ZM67.16756 170.5665Q67.16756 170.629 67.13631 170.67587Q67.10506 170.70712 67.02693 170.73837Q66.94881 170.754 66.80818 170.76962Q66.68318 170.78525 66.49568 170.78525Q66.29256 170.78525 66.15193 170.76962Q66.02693 170.754 65.94881 170.73837Q65.87068 170.70712 65.83943 170.67587Q65.80818 170.629 65.80818 170.5665L65.80818 165.78525Q65.80818 165.73837 65.83943 165.70712Q65.87068 165.66025 65.94881 165.629Q66.02693 165.59775 66.15193 165.58212Q66.29256 165.5665 66.49568 165.5665Q66.68318 165.5665 66.80818 165.58212Q66.94881 165.59775 67.02693 165.629Q67.10506 165.66025 67.13631 165.70712Q67.16756 165.73837 67.16756 165.78525L67.16756 170.5665ZM67.26131 164.16025Q67.26131 164.5665 67.08943 164.72275Q66.93318 164.879 66.48006 164.879Q66.02693 164.879 65.87068 164.73837Q65.71443 164.58212 65.71443 164.1915Q65.71443 163.76962 65.87068 163.61337Q66.04256 163.45712 66.49568 163.45712Q66.94881 163.45712 67.10506 163.61337Q67.26131 163.76962 67.26131 164.16025ZM70.16756 170.5665Q70.16756 170.629 70.13631 170.67587Q70.10506 170.70712 70.02693 170.73837Q69.94881 170.754 69.80818 170.76962Q69.68318 170.78525 69.49568 170.78525Q69.29256 170.78525 69.15193 170.76962Q69.02693 170.754 68.94881 170.73837Q68.87068 170.70712 68.83943 170.67587Q68.80818 170.629 68.80818 170.5665L68.80818 163.504Q68.80818 163.45712 68.83943 163.41025Q68.87068 163.36337 68.94881 163.34775Q69.02693 163.3165 69.15193 163.30087Q69.29256 163.26962 69.49568 163.26962Q69.68318 163.26962 69.80818 163.30087Q69.94881 163.3165 70.02693 163.34775Q70.10506 163.36337 70.13631 163.41025Q70.16756 163.45712 70.16756 163.504L70.16756 170.5665ZM76.24568 168.03525Q76.24568 168.28525 76.12068 168.41025Q76.01131 168.51962 75.82381 168.51962L72.90193 168.51962Q72.90193 168.83212 72.98006 169.08212Q73.05818 169.33212 73.21443 169.504Q73.37068 169.67587 73.62068 169.76962Q73.87068 169.86337 74.21443 169.86337Q74.57381 169.86337 74.83943 169.8165Q75.10506 169.754 75.29256 169.6915Q75.49568 169.629 75.62068 169.58212Q75.76131 169.53525 75.83943 169.53525Q75.88631 169.53525 75.91756 169.55087Q75.94881 169.5665 75.96443 169.61337Q75.99568 169.66025 75.99568 169.754Q76.01131 169.84775 76.01131 169.97275Q76.01131 170.09775 75.99568 170.17587Q75.99568 170.254 75.98006 170.3165Q75.98006 170.379 75.94881 170.42587Q75.93318 170.45712 75.90193 170.504Q75.87068 170.53525 75.71443 170.59775Q75.55818 170.66025 75.30818 170.72275Q75.07381 170.78525 74.76131 170.83212Q74.44881 170.879 74.08943 170.879Q73.46443 170.879 72.98006 170.72275Q72.49568 170.55087 72.16756 170.22275Q71.85506 169.89462 71.68318 169.39462Q71.52693 168.89462 71.52693 168.22275Q71.52693 167.59775 71.69881 167.08212Q71.87068 166.5665 72.18318 166.20712Q72.49568 165.84775 72.94881 165.66025Q73.40193 165.47275 73.98006 165.47275Q74.57381 165.47275 74.99568 165.66025Q75.43318 165.83212 75.69881 166.14462Q75.98006 166.45712 76.10506 166.89462Q76.24568 167.3165 76.24568 167.8165L76.24568 168.03525ZM74.93318 167.64462Q74.94881 167.08212 74.69881 166.754Q74.44881 166.42587 73.94881 166.42587Q73.68318 166.42587 73.49568 166.53525Q73.30818 166.629 73.18318 166.80087Q73.05818 166.95712 72.98006 167.17587Q72.91756 167.39462 72.90193 167.64462L74.93318 167.64462Z" fill-rule="nonzero"/><path fill="#000000" d="M66.69881 131.6849Q66.69881 131.8099 66.68318 131.90366Q66.68318 131.9974 66.66756 132.07553Q66.65193 132.13803 66.62068 132.1849Q66.60506 132.23178 66.54256 132.29428Q66.48006 132.35678 66.30818 132.45053Q66.13631 132.54428 65.88631 132.63803Q65.65193 132.73178 65.33943 132.77866Q65.02693 132.84116 64.66756 132.84116Q63.948803 132.84116 63.370678 132.6224Q62.792553 132.40366 62.386303 131.96616Q61.995678 131.52866 61.776928 130.8724Q61.558178 130.21616 61.558178 129.34116Q61.558178 128.46616 61.792553 127.778656Q62.026928 127.091156 62.448803 126.622406Q62.886303 126.153656 63.480053 125.91928Q64.07381 125.66928 64.77693 125.66928Q65.07381 125.66928 65.33943 125.716156Q65.60506 125.76303 65.83943 125.841156Q66.07381 125.91928 66.24568 126.028656Q66.43318 126.122406 66.49568 126.20053Q66.57381 126.26303 66.60506 126.32553Q66.63631 126.372406 66.65193 126.45053Q66.66756 126.51303 66.66756 126.622406Q66.68318 126.716156 66.68318 126.872406Q66.68318 127.028656 66.66756 127.153656Q66.65193 127.26303 66.62068 127.341156Q66.60506 127.403656 66.55818 127.434906Q66.52693 127.466156 66.48006 127.466156Q66.40193 127.466156 66.27693 127.372406Q66.15193 127.278656 65.94881 127.16928Q65.76131 127.04428 65.48006 126.95053Q65.21443 126.85678 64.83943 126.85678Q64.43318 126.85678 64.10506 127.028656Q63.776928 127.20053 63.542553 127.51303Q63.323803 127.82553 63.198803 128.27866Q63.089428 128.71616 63.089428 129.27866Q63.089428 129.88803 63.214428 130.34116Q63.339428 130.77866 63.573803 131.07553Q63.808178 131.35678 64.13631 131.51303Q64.46443 131.65366 64.88631 131.65366Q65.26131 131.65366 65.52693 131.5599Q65.80818 131.46616 65.99568 131.35678Q66.19881 131.2474 66.32381 131.16928Q66.44881 131.07553 66.51131 131.07553Q66.57381 131.07553 66.60506 131.10678Q66.63631 131.1224 66.65193 131.1849Q66.68318 131.2474 66.68318 131.3724Q66.69881 131.48178 66.69881 131.6849ZM72.33943 129.63803Q72.33943 129.79428 72.32381 129.90366Q72.30818 129.9974 72.27693 130.0599Q72.24568 130.1224 72.19881 130.15366Q72.15193 130.16928 72.10506 130.16928L70.43318 130.16928L70.43318 131.9974Q70.43318 132.04428 70.40193 132.09116Q70.38631 132.1224 70.30818 132.15366Q70.24568 132.1849 70.13631 132.20053Q70.04256 132.21616 69.87068 132.21616Q69.71443 132.21616 69.60506 132.20053Q69.49568 132.1849 69.43318 132.15366Q69.37068 132.1224 69.33943 132.09116Q69.30818 132.04428 69.30818 131.9974L69.30818 130.16928L67.65193 130.16928Q67.60506 130.16928 67.55818 130.15366Q67.51131 130.1224 67.48006 130.0599Q67.44881 129.9974 67.43318 129.90366Q67.41756 129.79428 67.41756 129.63803Q67.41756 129.4974 67.43318 129.40366Q67.44881 129.29428 67.48006 129.23178Q67.51131 129.16928 67.54256 129.13803Q67.58943 129.10678 67.63631 129.10678L69.30818 129.10678L69.30818 127.29428Q69.30818 127.247406 69.33943 127.20053Q69.37068 127.153656 69.43318 127.122406Q69.49568 127.091156 69.60506 127.07553Q69.71443 127.059906 69.87068 127.059906Q70.04256 127.059906 70.13631 127.07553Q70.24568 127.091156 70.30818 127.122406Q70.38631 127.153656 70.40193 127.20053Q70.43318 127.247406 70.43318 127.29428L70.43318 129.10678L72.12068 129.10678Q72.16756 129.10678 72.19881 129.13803Q72.24568 129.16928 72.27693 129.23178Q72.30818 129.29428 72.32381 129.40366Q72.33943 129.4974 72.33943 129.63803ZM77.33943 129.63803Q77.33943 129.79428 77.32381 129.90366Q77.30818 129.9974 77.27693 130.0599Q77.24568 130.1224 77.19881 130.15366Q77.15193 130.16928 77.10506 130.16928L75.43318 130.16928L75.43318 131.9974Q75.43318 132.04428 75.40193 132.09116Q75.38631 132.1224 75.30818 132.15366Q75.24568 132.1849 75.13631 132.20053Q75.04256 132.21616 74.87068 132.21616Q74.71443 132.21616 74.60506 132.20053Q74.49568 132.1849 74.43318 132.15366Q74.37068 132.1224 74.33943 132.09116Q74.30818 132.04428 74.30818 131.9974L74.30818 130.16928L72.65193 130.16928Q72.60506 130.16928 72.55818 130.15366Q72.51131 130.1224 72.48006 130.0599Q72.44881 129.9974 72.43318 129.90366Q72.41756 129.79428 72.41756 129.63803Q72.41756 129.4974 72.43318 129.40366Q72.44881 129.29428 72.48006 129.23178Q72.51131 129.16928 72.54256 129.13803Q72.58943 129.10678 72.63631 129.10678L74.30818 129.10678L74.30818 127.29428Q74.30818 127.247406 74.33943 127.20053Q74.37068 127.153656 74.43318 127.122406Q74.49568 127.091156 74.60506 127.07553Q74.71443 127.059906 74.87068 127.059906Q75.04256 127.059906 75.13631 127.07553Q75.24568 127.091156 75.30818 127.122406Q75.38631 127.153656 75.40193 127.20053Q75.43318 127.247406 75.43318 127.29428L75.43318 129.10678L77.12068 129.10678Q77.16756 129.10678 77.19881 129.13803Q77.24568 129.16928 77.27693 129.23178Q77.30818 129.29428 77.32381 129.40366Q77.33943 129.4974 77.33943 129.63803Z" fill-rule="nonzero"/><path fill="#000000" d="M49.651928 89.865814Q49.651928 90.459564 49.464428 90.91269Q49.292553 91.35019 48.933178 91.66269Q48.589428 91.97519 48.073803 92.147064Q47.573803 92.303314 46.886303 92.303314L46.308178 92.303314L46.308178 94.522064Q46.308178 94.56894 46.261303 94.615814Q46.230053 94.66269 46.151928 94.69394Q46.073803 94.709564 45.933178 94.72519Q45.808178 94.740814 45.605053 94.740814Q45.386303 94.740814 45.245678 94.72519Q45.120678 94.709564 45.042553 94.69394Q44.964428 94.66269 44.917553 94.615814Q44.886303 94.56894 44.886303 94.522064L44.886303 88.25644Q44.886303 88.00644 45.011303 87.88144Q45.151928 87.75644 45.370678 87.75644L47.011303 87.75644Q47.261303 87.75644 47.480053 87.78769Q47.698803 87.803314 48.011303 87.865814Q48.323803 87.91269 48.636303 88.084564Q48.964428 88.25644 49.183178 88.50644Q49.417553 88.75644 49.526928 89.10019Q49.651928 89.44394 49.651928 89.865814ZM48.183178 89.97519Q48.183178 89.60019 48.042553 89.365814Q47.917553 89.13144 47.730053 89.022064Q47.542553 88.91269 47.323803 88.88144Q47.120678 88.85019 46.901928 88.85019L46.308178 88.85019L46.308178 91.209564L46.933178 91.209564Q47.276928 91.209564 47.495678 91.115814Q47.730053 91.022064 47.870678 90.865814Q48.026928 90.69394 48.105053 90.47519Q48.183178 90.240814 48.183178 89.97519ZM53.589428 94.709564L53.011303 96.41269Q52.964428 96.53769 52.745678 96.60019Q52.526928 96.66269 52.120678 96.66269Q51.901928 96.66269 51.776928 96.63144Q51.651928 96.615814 51.573803 96.56894Q51.511303 96.53769 51.511303 96.47519Q51.511303 96.41269 51.542553 96.31894L52.183178 94.709564Q52.120678 94.678314 52.058178 94.615814Q51.995678 94.53769 51.980053 94.47519L50.323803 90.06894Q50.261303 89.88144 50.261303 89.78769Q50.261303 89.678314 50.323803 89.63144Q50.386303 89.56894 50.526928 89.553314Q50.683178 89.522064 50.948803 89.522064Q51.167553 89.522064 51.308178 89.53769Q51.448803 89.53769 51.511303 89.56894Q51.589428 89.60019 51.620678 89.678314Q51.667553 89.740814 51.698803 89.865814L52.839428 93.06894L52.855053 93.06894L53.886303 89.78769Q53.917553 89.66269 53.964428 89.615814Q54.011303 89.56894 54.120678 89.553314Q54.245678 89.522064 54.542553 89.522064Q54.776928 89.522064 54.933178 89.553314Q55.089428 89.56894 55.151928 89.63144Q55.230053 89.678314 55.230053 89.78769Q55.230053 89.88144 55.183178 90.022064L53.589428 94.709564ZM58.651928 94.053314Q58.651928 94.28769 58.620678 94.41269Q58.589428 94.53769 58.542553 94.60019Q58.495678 94.647064 58.401928 94.69394Q58.308178 94.72519 58.183178 94.75644Q58.058178 94.78769 57.901928 94.803314Q57.761303 94.81894 57.605053 94.81894Q57.198803 94.81894 56.901928 94.709564Q56.620678 94.615814 56.417553 94.41269Q56.230053 94.19394 56.136303 93.865814Q56.042553 93.53769 56.042553 93.10019L56.042553 90.647064L55.464428 90.647064Q55.370678 90.647064 55.308178 90.522064Q55.261303 90.397064 55.261303 90.10019Q55.261303 89.94394 55.276928 89.834564Q55.292553 89.72519 55.308178 89.66269Q55.339428 89.60019 55.370678 89.584564Q55.417553 89.553314 55.480053 89.553314L56.042553 89.553314L56.042553 88.490814Q56.042553 88.428314 56.073803 88.397064Q56.105053 88.35019 56.183178 88.31894Q56.261303 88.28769 56.386303 88.272064Q56.526928 88.25644 56.714428 88.25644Q56.917553 88.25644 57.042553 88.272064Q57.183178 88.28769 57.245678 88.31894Q57.323803 88.35019 57.355053 88.397064Q57.386303 88.428314 57.386303 88.490814L57.386303 89.553314L58.433178 89.553314Q58.495678 89.553314 58.526928 89.584564Q58.573803 89.60019 58.589428 89.66269Q58.620678 89.72519 58.636303 89.834564Q58.651928 89.94394 58.651928 90.10019Q58.651928 90.397064 58.589428 90.522064Q58.542553 90.647064 58.433178 90.647064L57.386303 90.647064L57.386303 92.897064Q57.386303 93.28769 57.511303 93.490814Q57.636303 93.678314 57.948803 93.678314Q58.058178 93.678314 58.136303 93.66269Q58.230053 93.647064 58.292553 93.63144Q58.370678 93.60019 58.417553 93.584564Q58.464428 93.553314 58.495678 93.553314Q58.526928 93.553314 58.558178 93.584564Q58.589428 93.60019 58.605053 93.66269Q58.620678 93.709564 58.636303 93.803314Q58.651928 93.897064 58.651928 94.053314ZM64.38631 94.522064Q64.38631 94.584564 64.35506 94.63144Q64.32381 94.66269 64.24568 94.69394Q64.16756 94.709564 64.04256 94.72519Q63.917553 94.740814 63.714428 94.740814Q63.526928 94.740814 63.386303 94.72519Q63.261303 94.709564 63.183178 94.69394Q63.105053 94.66269 63.073803 94.63144Q63.042553 94.584564 63.042553 94.522064L63.042553 91.78769Q63.042553 91.44394 62.980053 91.25644Q62.933178 91.053314 62.839428 90.91269Q62.745678 90.75644 62.589428 90.678314Q62.433178 90.60019 62.230053 90.60019Q61.980053 90.60019 61.714428 90.78769Q61.448803 90.97519 61.167553 91.334564L61.167553 94.522064Q61.167553 94.584564 61.136303 94.63144Q61.105053 94.66269 61.026928 94.69394Q60.948803 94.709564 60.808178 94.72519Q60.683178 94.740814 60.495678 94.740814Q60.292553 94.740814 60.151928 94.72519Q60.026928 94.709564 59.948803 94.69394Q59.870678 94.66269 59.839428 94.63144Q59.808178 94.584564 59.808178 94.522064L59.808178 87.459564Q59.808178 87.41269 59.839428 87.365814Q59.870678 87.31894 59.948803 87.303314Q60.026928 87.272064 60.151928 87.25644Q60.292553 87.22519 60.495678 87.22519Q60.683178 87.22519 60.808178 87.25644Q60.948803 87.272064 61.026928 87.303314Q61.105053 87.31894 61.136303 87.365814Q61.167553 87.41269 61.167553 87.459564L61.167553 90.115814Q61.511303 89.772064 61.870678 89.60019Q62.245678 89.428314 62.636303 89.428314Q63.120678 89.428314 63.448803 89.60019Q63.792553 89.75644 63.995678 90.03769Q64.21443 90.303314 64.29256 90.678314Q64.38631 91.053314 64.38631 91.584564L64.38631 94.522064ZM70.65193 92.084564Q70.65193 92.69394 70.49568 93.209564Q70.33943 93.709564 70.01131 94.06894Q69.68318 94.428314 69.18318 94.63144Q68.69881 94.834564 68.02693 94.834564Q67.38631 94.834564 66.91756 94.66269Q66.44881 94.47519 66.13631 94.147064Q65.82381 93.803314 65.66756 93.31894Q65.52693 92.81894 65.52693 92.178314Q65.52693 91.56894 65.68318 91.06894Q65.85506 90.553314 66.18318 90.19394Q66.51131 89.834564 66.99568 89.63144Q67.49568 89.428314 68.15193 89.428314Q68.79256 89.428314 69.26131 89.60019Q69.74568 89.772064 70.04256 90.115814Q70.35506 90.459564 70.49568 90.959564Q70.65193 91.44394 70.65193 92.084564ZM69.26131 92.13144Q69.26131 91.78769 69.19881 91.490814Q69.15193 91.178314 69.01131 90.959564Q68.88631 90.740814 68.65193 90.615814Q68.43318 90.490814 68.10506 90.490814Q67.80818 90.490814 67.57381 90.615814Q67.35506 90.72519 67.19881 90.94394Q67.05818 91.147064 66.98006 91.44394Q66.91756 91.740814 66.91756 92.115814Q66.91756 92.47519 66.96443 92.772064Q67.02693 93.06894 67.15193 93.28769Q67.29256 93.50644 67.51131 93.63144Q67.74568 93.75644 68.07381 93.75644Q68.38631 93.75644 68.60506 93.647064Q68.83943 93.53769 68.98006 93.334564Q69.12068 93.115814 69.18318 92.81894Q69.26131 92.522064 69.26131 92.13144ZM76.38631 94.522064Q76.38631 94.584564 76.35506 94.63144Q76.32381 94.66269 76.24568 94.69394Q76.16756 94.709564 76.04256 94.72519Q75.91756 94.740814 75.71443 94.740814Q75.52693 94.740814 75.38631 94.72519Q75.26131 94.709564 75.18318 94.69394Q75.10506 94.66269 75.07381 94.63144Q75.04256 94.584564 75.04256 94.522064L75.04256 91.78769Q75.04256 91.44394 74.98006 91.25644Q74.93318 91.053314 74.83943 90.91269Q74.74568 90.75644 74.58943 90.678314Q74.43318 90.60019 74.23006 90.60019Q73.98006 90.60019 73.71443 90.78769Q73.44881 90.97519 73.16756 91.334564L73.16756 94.522064Q73.16756 94.584564 73.13631 94.63144Q73.10506 94.66269 73.02693 94.69394Q72.94881 94.709564 72.80818 94.72519Q72.68318 94.740814 72.49568 94.740814Q72.29256 94.740814 72.15193 94.72519Q72.02693 94.709564 71.94881 94.69394Q71.87068 94.66269 71.83943 94.63144Q71.80818 94.584564 71.80818 94.522064L71.80818 89.740814Q71.80818 89.678314 71.83943 89.647064Q71.87068 89.60019 71.93318 89.584564Q72.01131 89.553314 72.12068 89.53769Q72.23006 89.522064 72.38631 89.522064Q72.55818 89.522064 72.66756 89.53769Q72.79256 89.553314 72.85506 89.584564Q72.91756 89.60019 72.93318 89.647064Q72.96443 89.678314 72.96443 89.740814L72.96443 90.28769Q73.37068 89.865814 73.77693 89.647064Q74.18318 89.428314 74.63631 89.428314Q75.12068 89.428314 75.44881 89.60019Q75.79256 89.75644 75.99568 90.03769Q76.21443 90.303314 76.29256 90.678314Q76.38631 91.053314 76.38631 91.56894L76.38631 94.522064Z" fill-rule="nonzero"/><path fill="#000000" d="M61.026928 54.749855Q61.026928 55.218605 60.933178 55.60923Q60.855053 55.98423 60.636303 56.249855Q60.433178 56.51548 60.089428 56.656105Q59.745678 56.79673 59.230053 56.79673Q59.073803 56.79673 58.917553 56.76548Q58.761303 56.749855 58.620678 56.70298Q58.495678 56.67173 58.401928 56.624855Q58.308178 56.57798 58.276928 56.54673Q58.245678 56.51548 58.214428 56.48423Q58.198803 56.437355 58.183178 56.374855Q58.167553 56.312355 58.151928 56.23423Q58.151928 56.14048 58.151928 55.999855Q58.151928 55.812355 58.151928 55.687355Q58.167553 55.562355 58.183178 55.499855Q58.198803 55.42173 58.230053 55.39048Q58.276928 55.35923 58.323803 55.35923Q58.370678 55.35923 58.433178 55.39048Q58.511303 55.42173 58.589428 55.468605Q58.667553 55.499855 58.776928 55.531105Q58.886303 55.562355 59.026928 55.562355Q59.167553 55.562355 59.276928 55.531105Q59.386303 55.48423 59.464428 55.39048Q59.542553 55.29673 59.573803 55.124855Q59.620678 54.95298 59.620678 54.687355L59.620678 49.92173Q59.620678 49.85923 59.651928 49.82798Q59.683178 49.781105 59.761303 49.76548Q59.839428 49.73423 59.980053 49.718605Q60.120678 49.70298 60.323803 49.70298Q60.526928 49.70298 60.651928 49.718605Q60.792553 49.73423 60.870678 49.76548Q60.964428 49.781105 60.995678 49.82798Q61.026928 49.85923 61.026928 49.92173L61.026928 54.749855ZM66.90193 56.51548Q66.90193 56.593605 66.83943 56.64048Q66.79256 56.687355 66.66756 56.70298Q66.55818 56.718605 66.32381 56.718605Q66.08943 56.718605 65.98006 56.70298Q65.87068 56.687355 65.82381 56.64048Q65.77693 56.593605 65.77693 56.51548L65.77693 56.14048Q65.48006 56.45298 65.10506 56.64048Q64.73006 56.812355 64.26131 56.812355Q63.886303 56.812355 63.558178 56.70298Q63.245678 56.60923 63.011303 56.42173Q62.776928 56.218605 62.636303 55.937355Q62.511303 55.64048 62.511303 55.249855Q62.511303 54.82798 62.667553 54.531105Q62.839428 54.218605 63.167553 54.01548Q63.495678 53.812355 63.980053 53.718605Q64.46443 53.624855 65.10506 53.624855L65.57381 53.624855L65.57381 53.32798Q65.57381 53.10923 65.52693 52.937355Q65.48006 52.76548 65.37068 52.656105Q65.26131 52.54673 65.08943 52.499855Q64.91756 52.437355 64.66756 52.437355Q64.32381 52.437355 64.05818 52.51548Q63.792553 52.57798 63.589428 52.67173Q63.386303 52.76548 63.245678 52.843605Q63.105053 52.92173 63.026928 52.92173Q62.964428 52.92173 62.917553 52.89048Q62.870678 52.843605 62.839428 52.781105Q62.808178 52.70298 62.792553 52.60923Q62.776928 52.499855 62.776928 52.374855Q62.776928 52.20298 62.808178 52.10923Q62.839428 52.01548 62.901928 51.937355Q62.980053 51.85923 63.167553 51.76548Q63.355053 51.67173 63.605053 51.593605Q63.870678 51.51548 64.16756 51.468605Q64.46443 51.406105 64.77693 51.406105Q65.33943 51.406105 65.73006 51.51548Q66.13631 51.624855 66.38631 51.85923Q66.65193 52.07798 66.77693 52.437355Q66.90193 52.79673 66.90193 53.29673L66.90193 56.51548ZM65.57381 54.468605L65.05818 54.468605Q64.73006 54.468605 64.49568 54.51548Q64.26131 54.562355 64.12068 54.67173Q63.980053 54.76548 63.901928 54.906105Q63.839428 55.031105 63.839428 55.20298Q63.839428 55.51548 64.02693 55.687355Q64.21443 55.85923 64.55818 55.85923Q64.83943 55.85923 65.07381 55.718605Q65.32381 55.562355 65.57381 55.281105L65.57381 54.468605ZM72.23006 51.70298Q72.23006 51.73423 72.21443 51.781105Q72.21443 51.812355 72.19881 51.85923Q72.19881 51.906105 72.18318 51.968605Q72.16756 52.01548 72.15193 52.093605L70.71443 56.42173Q70.68318 56.51548 70.63631 56.57798Q70.58943 56.64048 70.48006 56.67173Q70.38631 56.70298 70.19881 56.70298Q70.02693 56.718605 69.73006 56.718605Q69.44881 56.718605 69.26131 56.70298Q69.08943 56.687355 68.98006 56.656105Q68.88631 56.624855 68.83943 56.57798Q68.79256 56.51548 68.77693 56.42173L67.32381 52.093605Q67.29256 51.98423 67.27693 51.906105Q67.26131 51.812355 67.26131 51.781105Q67.26131 51.73423 67.26131 51.70298Q67.26131 51.656105 67.27693 51.624855Q67.30818 51.57798 67.38631 51.54673Q67.46443 51.51548 67.58943 51.51548Q67.73006 51.499855 67.93318 51.499855Q68.15193 51.499855 68.27693 51.51548Q68.41756 51.531105 68.49568 51.562355Q68.57381 51.57798 68.60506 51.624855Q68.63631 51.67173 68.65193 51.73423L69.74568 55.249855L69.77693 55.374855L69.80818 55.249855L70.88631 51.73423Q70.90193 51.67173 70.93318 51.624855Q70.96443 51.57798 71.04256 51.562355Q71.12068 51.531105 71.24568 51.51548Q71.37068 51.499855 71.57381 51.499855Q71.77693 51.499855 71.90193 51.51548Q72.02693 51.51548 72.08943 51.54673Q72.16756 51.57798 72.19881 51.624855Q72.23006 51.656105 72.23006 51.70298ZM76.90193 56.51548Q76.90193 56.593605 76.83943 56.64048Q76.79256 56.687355 76.66756 56.70298Q76.55818 56.718605 76.32381 56.718605Q76.08943 56.718605 75.98006 56.70298Q75.87068 56.687355 75.82381 56.64048Q75.77693 56.593605 75.77693 56.51548L75.77693 56.14048Q75.48006 56.45298 75.10506 56.64048Q74.73006 56.812355 74.26131 56.812355Q73.88631 56.812355 73.55818 56.70298Q73.24568 56.60923 73.01131 56.42173Q72.77693 56.218605 72.63631 55.937355Q72.51131 55.64048 72.51131 55.249855Q72.51131 54.82798 72.66756 54.531105Q72.83943 54.218605 73.16756 54.01548Q73.49568 53.812355 73.98006 53.718605Q74.46443 53.624855 75.10506 53.624855L75.57381 53.624855L75.57381 53.32798Q75.57381 53.10923 75.52693 52.937355Q75.48006 52.76548 75.37068 52.656105Q75.26131 52.54673 75.08943 52.499855Q74.91756 52.437355 74.66756 52.437355Q74.32381 52.437355 74.05818 52.51548Q73.79256 52.57798 73.58943 52.67173Q73.38631 52.76548 73.24568 52.843605Q73.10506 52.92173 73.02693 52.92173Q72.96443 52.92173 72.91756 52.89048Q72.87068 52.843605 72.83943 52.781105Q72.80818 52.70298 72.79256 52.60923Q72.77693 52.499855 72.77693 52.374855Q72.77693 52.20298 72.80818 52.10923Q72.83943 52.01548 72.90193 51.937355Q72.98006 51.85923 73.16756 51.76548Q73.35506 51.67173 73.60506 51.593605Q73.87068 51.51548 74.16756 51.468605Q74.46443 51.406105 74.77693 51.406105Q75.33943 51.406105 75.73006 51.51548Q76.13631 51.624855 76.38631 51.85923Q76.65193 52.07798 76.77693 52.437355Q76.90193 52.79673 76.90193 53.29673L76.90193 56.51548ZM75.57381 54.468605L75.05818 54.468605Q74.73006 54.468605 74.49568 54.51548Q74.26131 54.562355 74.12068 54.67173Q73.98006 54.76548 73.90193 54.906105Q73.83943 55.031105 73.83943 55.20298Q73.83943 55.51548 74.02693 55.687355Q74.21443 55.85923 74.55818 55.85923Q74.83943 55.85923 75.07381 55.718605Q75.32381 55.562355 75.57381 55.281105L75.57381 54.468605Z" fill-rule="nonzero"/></svg>