<!-- Generated by IcoMoon.io -->
<svg version="1.1" xmlns="http://www.w3.org/2000/svg" width="32" height="32" viewBox="0 0 32 32">
<title>econ</title>
<path d="M27.683 2.123c-0.276-0.803-0.841-1.446-1.568-1.816l-0.018-0.008c-0.434-0.193-0.94-0.305-1.472-0.305-0.558 0-1.087 0.123-1.562 0.345l0.023-0.010-16.169 5.39c-1.046 0.233-1.908 0.884-2.417 1.764l-0.010 0.018c-0.212 0.411-0.336 0.897-0.336 1.412 0 0.357 0.059 0.699 0.169 1.019l-0.007-0.022c0.276 0.803 0.841 1.446 1.568 1.816l0.018 0.008c0.434 0.193 0.94 0.306 1.473 0.306 0.558 0 1.087-0.123 1.561-0.344l-0.023 0.010 16.169-5.39c1.045-0.235 1.907-0.885 2.417-1.765l0.010-0.018c0.212-0.411 0.336-0.897 0.336-1.412 0-0.357-0.059-0.699-0.169-1.019l0.007 0.022z"></path>
<path d="M27.683 12.104c-0.276-0.803-0.841-1.446-1.568-1.816l-0.018-0.008c-0.434-0.193-0.94-0.305-1.472-0.305-0.558 0-1.087 0.123-1.562 0.344l0.023-0.010-16.169 5.391c-1.046 0.233-1.908 0.884-2.417 1.765l-0.010 0.018c-0.212 0.411-0.336 0.897-0.336 1.412 0 0.357 0.059 0.699 0.169 1.019l-0.007-0.022c0.276 0.803 0.841 1.446 1.568 1.816l0.018 0.008c0.434 0.193 0.94 0.305 1.472 0.305 0.558 0 1.087-0.123 1.562-0.345l-0.023 0.010 16.169-5.39c1.045-0.235 1.907-0.885 2.417-1.765l0.010-0.018c0.212-0.411 0.336-0.897 0.336-1.412 0-0.357-0.060-0.7-0.169-1.020l0.007 0.022z"></path>
<path d="M27.683 22.090c-0.276-0.803-0.841-1.446-1.568-1.816l-0.018-0.008c-0.434-0.193-0.94-0.305-1.472-0.305-0.558 0-1.087 0.123-1.562 0.345l0.023-0.010-16.169 5.39c-1.046 0.233-1.908 0.884-2.417 1.765l-0.010 0.018c-0.212 0.411-0.336 0.897-0.336 1.412 0 0.357 0.059 0.699 0.169 1.019l-0.007-0.022c0.276 0.803 0.841 1.446 1.568 1.816l0.018 0.008c0.434 0.193 0.94 0.305 1.472 0.305 0.558 0 1.087-0.123 1.562-0.345l-0.023 0.010 16.169-5.39c1.045-0.235 1.907-0.885 2.417-1.764l0.010-0.018c0.212-0.411 0.336-0.897 0.336-1.412 0-0.357-0.060-0.7-0.169-1.019l0.007 0.022z"></path>
</svg>
